<svg width="1440" height="1024" viewBox="0 0 1440 1024" fill="none" xmlns="http://www.w3.org/2000/svg">
<g clip-path="url(#clip0_185_96)">
<rect width="1440" height="1024" fill="#A0E6FF"/>
<path opacity="0.31" d="M447.642 424.067C426.142 431.067 413.809 459.067 415.642 481.067C383.644 469.149 339.346 472.692 322.642 494.567C301.642 522.067 313.142 549.567 313.142 549.567H632.142C688.642 549.567 672.642 481.067 632.142 481.067C632.142 481.067 631.142 448.067 608.142 431.067C588.809 416.777 530.142 404.067 507.142 451.067C504.309 433.067 474.642 415.276 447.642 424.067Z" fill="white"/>
<path opacity="0.31" d="M875.72 68.5967C862.955 72.7467 855.632 89.3466 856.721 102.389C837.723 95.3237 811.423 97.4247 801.506 110.393C789.038 126.696 795.866 143 795.866 143H985.259C1018.8 143 1009.3 102.389 985.259 102.389C985.259 102.389 984.665 82.8252 971.01 72.7467C959.531 64.2747 924.701 56.7395 911.045 84.6038C909.363 73.9324 891.75 63.385 875.72 68.5967Z" fill="white"/>
<path opacity="0.31" d="M1362.72 487.597C1349.95 491.747 1342.63 508.347 1343.72 521.389C1324.72 514.324 1298.42 516.425 1288.51 529.393C1276.04 545.696 1282.87 562 1282.87 562H1472.26C1505.8 562 1496.3 521.389 1472.26 521.389C1472.26 521.389 1471.67 501.825 1458.01 491.747C1446.53 483.275 1411.7 475.74 1398.05 503.604C1396.36 492.932 1378.75 482.385 1362.72 487.597Z" fill="white"/>
<path opacity="0.31" d="M1146.64 235.067C1125.14 242.067 1112.81 270.067 1114.64 292.067C1082.64 280.149 1038.35 283.692 1021.64 305.567C1000.64 333.067 1012.14 360.567 1012.14 360.567H1331.14C1387.64 360.567 1371.64 292.067 1331.14 292.067C1331.14 292.067 1330.14 259.067 1307.14 242.067C1287.81 227.777 1229.14 215.067 1206.14 262.067C1203.31 244.067 1173.64 226.276 1146.64 235.067Z" fill="white"/>
<path opacity="0.31" d="M1022.28 651.228C1010.83 654.952 1004.27 669.85 1005.24 681.555C988.207 675.214 964.624 677.099 955.731 688.737C944.55 703.369 950.673 718 950.673 718H1120.5C1150.58 718 1142.07 681.555 1120.5 681.555C1120.5 681.555 1119.97 663.997 1107.73 654.952C1097.43 647.349 1066.2 640.587 1053.96 665.593C1052.45 656.016 1036.65 646.551 1022.28 651.228Z" fill="white"/>
<path opacity="0.31" d="M122.279 651.228C110.833 654.952 104.267 669.85 105.243 681.555C88.2074 675.214 64.6236 677.099 55.7306 688.737C44.5505 703.369 50.6729 718 50.6729 718H220.504C250.584 718 242.066 681.555 220.504 681.555C220.504 681.555 219.972 663.997 207.727 654.952C197.434 647.349 166.201 640.587 153.956 665.593C152.448 656.016 136.653 646.551 122.279 651.228Z" fill="white"/>
<path opacity="0.31" d="M395.833 906.288C380.551 911.236 371.785 931.029 373.088 946.58C350.345 938.155 318.859 940.66 306.986 956.122C292.06 975.561 300.233 995 300.233 995H526.972C567.131 995 555.758 946.58 526.972 946.58C526.972 946.58 526.261 923.253 509.913 911.236C496.171 901.135 454.472 892.151 438.125 925.374C436.111 912.65 415.024 900.074 395.833 906.288Z" fill="white"/>
<path opacity="0.31" d="M1069.83 935.288C1054.55 940.236 1045.79 960.029 1047.09 975.58C1024.34 967.155 992.859 969.66 980.986 985.122C966.06 1004.56 974.233 1024 974.233 1024H1200.97C1241.13 1024 1229.76 975.58 1200.97 975.58C1200.97 975.58 1200.26 952.253 1183.91 940.236C1170.17 930.135 1128.47 921.151 1112.12 954.374C1110.11 941.65 1089.02 929.074 1069.83 935.288Z" fill="white"/>
<path opacity="0.3" d="M187 149.5C165.5 156.5 153.167 184.5 155 206.5C123.002 194.582 78.704 198.126 62 220C41 247.5 52.5 275 52.5 275H371.5C428 275 412 206.5 371.5 206.5C371.5 206.5 370.5 173.5 347.5 156.5C328.166 142.21 269.5 129.5 246.5 176.5C243.667 158.5 214 140.71 187 149.5Z" fill="white"/>
</g>
<defs>
<clipPath id="clip0_185_96">
<rect width="1440" height="1024" fill="white"/>
</clipPath>
</defs>
</svg>
